<svg width="192" height="192" viewBox="0 0 192 192" fill="none" xmlns="http://www.w3.org/2000/svg">
<g clip-path="url(#clip0_543_297)">
<path d="M132.15 74.7749H168.15V38.7749" stroke="white" stroke-width="12" stroke-linecap="round" stroke-linejoin="round"/>
<path d="M142.649 142.65C133.421 151.886 121.661 158.177 108.857 160.728C96.0525 163.279 82.7793 161.975 70.7163 156.981C58.6532 151.987 48.3422 143.528 41.0877 132.673C33.8331 121.818 29.9609 109.056 29.9609 96C29.9609 82.9442 33.8331 70.1816 41.0877 59.3268C48.3422 48.472 58.6532 40.0126 70.7163 35.0188C82.7793 30.025 96.0525 28.7212 108.857 31.2721C121.661 33.8231 133.421 40.1144 142.649 49.35L168.149 74.775" stroke="white" stroke-width="12" stroke-linecap="round" stroke-linejoin="round"/>
</g>
<defs>
<clipPath id="clip0_543_297">
<rect width="192" height="192" fill="white"/>
</clipPath>
</defs>
</svg>
