<svg width="757" height="534" viewBox="0 0 757 534" fill="none" xmlns="http://www.w3.org/2000/svg">
<path fill-rule="evenodd" clip-rule="evenodd" d="M674.247 15.9226C706.818 24.6839 732.466 50.5001 741.172 83.2808C756.992 142.7 756.992 266.668 756.992 266.668C756.992 266.668 756.992 390.633 741.172 450.059C732.466 482.833 706.818 508.649 674.247 517.414C615.214 533.333 378.494 533.333 378.494 533.333C378.494 533.333 141.778 533.333 82.7453 517.414C50.1743 508.649 24.5226 482.836 15.8194 450.056C0 390.636 0 266.668 0 266.668C0 266.668 0 142.7 15.8194 83.2808C24.5226 50.5001 50.1743 24.6839 82.7453 15.9226C141.778 0 378.494 0 378.494 0C378.494 0 615.214 0 674.247 15.9226ZM498.927 266.672L301.075 379.22V154.113L498.927 266.672Z" fill="white"/>
</svg>
